<mxfile host="app.diagrams.net" agent="Mozilla/5.0 (Macintosh; Intel Mac OS X 10_15_7) AppleWebKit/537.36 (KHTML, like Gecko) Chrome/133.0.0.0 Safari/537.36" version="26.0.16">
  <diagram name="第 1 页" id="V3CfOMOfl4eMWSPjZYLT">
    <mxGraphModel dx="1242" dy="-384" grid="1" gridSize="10" guides="1" tooltips="1" connect="1" arrows="1" fold="1" page="1" pageScale="1" pageWidth="827" pageHeight="1169" math="0" shadow="0">
      <root>
        <mxCell id="0" />
        <mxCell id="1" parent="0" />
        <mxCell id="_e3NWBXnyXuwOt7-cwn2-49" value="" style="rounded=0;whiteSpace=wrap;html=1;dashed=1;dashPattern=8 8;" vertex="1" parent="1">
          <mxGeometry x="1060" y="1330" width="520" height="750" as="geometry" />
        </mxCell>
        <mxCell id="_e3NWBXnyXuwOt7-cwn2-1" value="" style="group" vertex="1" connectable="0" parent="1">
          <mxGeometry x="520" y="1320" width="381" height="367.5" as="geometry" />
        </mxCell>
        <mxCell id="_e3NWBXnyXuwOt7-cwn2-2" style="edgeStyle=orthogonalEdgeStyle;rounded=0;orthogonalLoop=1;jettySize=auto;html=1;" edge="1" parent="_e3NWBXnyXuwOt7-cwn2-1" source="_e3NWBXnyXuwOt7-cwn2-3" target="_e3NWBXnyXuwOt7-cwn2-4">
          <mxGeometry relative="1" as="geometry" />
        </mxCell>
        <mxCell id="_e3NWBXnyXuwOt7-cwn2-3" value="7734200:__p1_room" style="text;strokeColor=none;align=center;fillColor=none;html=1;verticalAlign=middle;whiteSpace=wrap;rounded=0;" vertex="1" parent="_e3NWBXnyXuwOt7-cwn2-1">
          <mxGeometry x="70" y="12.5" width="140" height="30" as="geometry" />
        </mxCell>
        <mxCell id="_e3NWBXnyXuwOt7-cwn2-4" value="房间基本详情" style="ellipse;whiteSpace=wrap;html=1;" vertex="1" parent="_e3NWBXnyXuwOt7-cwn2-1">
          <mxGeometry x="260" width="120" height="55" as="geometry" />
        </mxCell>
        <mxCell id="_e3NWBXnyXuwOt7-cwn2-5" style="edgeStyle=orthogonalEdgeStyle;rounded=0;orthogonalLoop=1;jettySize=auto;html=1;entryX=0;entryY=0.5;entryDx=0;entryDy=0;" edge="1" parent="_e3NWBXnyXuwOt7-cwn2-1" source="_e3NWBXnyXuwOt7-cwn2-6" target="_e3NWBXnyXuwOt7-cwn2-7">
          <mxGeometry relative="1" as="geometry" />
        </mxCell>
        <mxCell id="_e3NWBXnyXuwOt7-cwn2-6" value="7734200:getAccountCardInfo" style="text;strokeColor=none;align=center;fillColor=none;html=1;verticalAlign=middle;whiteSpace=wrap;rounded=0;" vertex="1" parent="_e3NWBXnyXuwOt7-cwn2-1">
          <mxGeometry x="20" y="112.5" width="170" height="30" as="geometry" />
        </mxCell>
        <mxCell id="_e3NWBXnyXuwOt7-cwn2-7" value="账号模块详情" style="ellipse;whiteSpace=wrap;html=1;" vertex="1" parent="_e3NWBXnyXuwOt7-cwn2-1">
          <mxGeometry x="261" y="92.5" width="120" height="70" as="geometry" />
        </mxCell>
        <mxCell id="_e3NWBXnyXuwOt7-cwn2-8" value="看过模块详情" style="ellipse;whiteSpace=wrap;html=1;" vertex="1" parent="_e3NWBXnyXuwOt7-cwn2-1">
          <mxGeometry x="260" y="197.5" width="120" height="70" as="geometry" />
        </mxCell>
        <mxCell id="_e3NWBXnyXuwOt7-cwn2-9" style="edgeStyle=orthogonalEdgeStyle;rounded=0;orthogonalLoop=1;jettySize=auto;html=1;entryX=0;entryY=0.5;entryDx=0;entryDy=0;" edge="1" parent="_e3NWBXnyXuwOt7-cwn2-1" source="_e3NWBXnyXuwOt7-cwn2-10" target="_e3NWBXnyXuwOt7-cwn2-8">
          <mxGeometry relative="1" as="geometry" />
        </mxCell>
        <mxCell id="_e3NWBXnyXuwOt7-cwn2-10" value="7734200:getWatchedShow" style="text;strokeColor=none;align=center;fillColor=none;html=1;verticalAlign=middle;whiteSpace=wrap;rounded=0;" vertex="1" parent="_e3NWBXnyXuwOt7-cwn2-1">
          <mxGeometry y="217.5" width="190" height="30" as="geometry" />
        </mxCell>
        <mxCell id="_e3NWBXnyXuwOt7-cwn2-11" style="edgeStyle=orthogonalEdgeStyle;rounded=0;orthogonalLoop=1;jettySize=auto;html=1;entryX=0;entryY=0.5;entryDx=0;entryDy=0;" edge="1" parent="_e3NWBXnyXuwOt7-cwn2-1" source="_e3NWBXnyXuwOt7-cwn2-12" target="_e3NWBXnyXuwOt7-cwn2-13">
          <mxGeometry relative="1" as="geometry" />
        </mxCell>
        <mxCell id="_e3NWBXnyXuwOt7-cwn2-12" value="7734200:。。。" style="text;strokeColor=none;align=center;fillColor=none;html=1;verticalAlign=middle;whiteSpace=wrap;rounded=0;" vertex="1" parent="_e3NWBXnyXuwOt7-cwn2-1">
          <mxGeometry y="317.5" width="190" height="30" as="geometry" />
        </mxCell>
        <mxCell id="_e3NWBXnyXuwOt7-cwn2-13" value="。。。" style="ellipse;whiteSpace=wrap;html=1;" vertex="1" parent="_e3NWBXnyXuwOt7-cwn2-1">
          <mxGeometry x="261" y="297.5" width="120" height="70" as="geometry" />
        </mxCell>
        <mxCell id="_e3NWBXnyXuwOt7-cwn2-14" value="" style="group" vertex="1" connectable="0" parent="1">
          <mxGeometry x="520" y="1720" width="381" height="367.5" as="geometry" />
        </mxCell>
        <mxCell id="_e3NWBXnyXuwOt7-cwn2-15" style="edgeStyle=orthogonalEdgeStyle;rounded=0;orthogonalLoop=1;jettySize=auto;html=1;" edge="1" parent="_e3NWBXnyXuwOt7-cwn2-14" source="_e3NWBXnyXuwOt7-cwn2-16" target="_e3NWBXnyXuwOt7-cwn2-17">
          <mxGeometry relative="1" as="geometry" />
        </mxCell>
        <mxCell id="_e3NWBXnyXuwOt7-cwn2-16" value="5440:__p1_room" style="text;strokeColor=none;align=center;fillColor=none;html=1;verticalAlign=middle;whiteSpace=wrap;rounded=0;" vertex="1" parent="_e3NWBXnyXuwOt7-cwn2-14">
          <mxGeometry x="70" y="12.5" width="140" height="30" as="geometry" />
        </mxCell>
        <mxCell id="_e3NWBXnyXuwOt7-cwn2-17" value="房间基本详情" style="ellipse;whiteSpace=wrap;html=1;" vertex="1" parent="_e3NWBXnyXuwOt7-cwn2-14">
          <mxGeometry x="260" width="120" height="55" as="geometry" />
        </mxCell>
        <mxCell id="_e3NWBXnyXuwOt7-cwn2-18" style="edgeStyle=orthogonalEdgeStyle;rounded=0;orthogonalLoop=1;jettySize=auto;html=1;entryX=0;entryY=0.5;entryDx=0;entryDy=0;" edge="1" parent="_e3NWBXnyXuwOt7-cwn2-14" source="_e3NWBXnyXuwOt7-cwn2-19" target="_e3NWBXnyXuwOt7-cwn2-20">
          <mxGeometry relative="1" as="geometry" />
        </mxCell>
        <mxCell id="_e3NWBXnyXuwOt7-cwn2-19" value="5440:getAccountCardInfo" style="text;strokeColor=none;align=center;fillColor=none;html=1;verticalAlign=middle;whiteSpace=wrap;rounded=0;" vertex="1" parent="_e3NWBXnyXuwOt7-cwn2-14">
          <mxGeometry x="20" y="112.5" width="170" height="30" as="geometry" />
        </mxCell>
        <mxCell id="_e3NWBXnyXuwOt7-cwn2-20" value="账号模块详情" style="ellipse;whiteSpace=wrap;html=1;" vertex="1" parent="_e3NWBXnyXuwOt7-cwn2-14">
          <mxGeometry x="261" y="92.5" width="120" height="70" as="geometry" />
        </mxCell>
        <mxCell id="_e3NWBXnyXuwOt7-cwn2-21" value="看过模块详情" style="ellipse;whiteSpace=wrap;html=1;" vertex="1" parent="_e3NWBXnyXuwOt7-cwn2-14">
          <mxGeometry x="260" y="197.5" width="120" height="70" as="geometry" />
        </mxCell>
        <mxCell id="_e3NWBXnyXuwOt7-cwn2-22" style="edgeStyle=orthogonalEdgeStyle;rounded=0;orthogonalLoop=1;jettySize=auto;html=1;entryX=0;entryY=0.5;entryDx=0;entryDy=0;" edge="1" parent="_e3NWBXnyXuwOt7-cwn2-14" source="_e3NWBXnyXuwOt7-cwn2-23" target="_e3NWBXnyXuwOt7-cwn2-21">
          <mxGeometry relative="1" as="geometry" />
        </mxCell>
        <mxCell id="_e3NWBXnyXuwOt7-cwn2-23" value="5440:getWatchedShow" style="text;strokeColor=none;align=center;fillColor=none;html=1;verticalAlign=middle;whiteSpace=wrap;rounded=0;" vertex="1" parent="_e3NWBXnyXuwOt7-cwn2-14">
          <mxGeometry y="217.5" width="190" height="30" as="geometry" />
        </mxCell>
        <mxCell id="_e3NWBXnyXuwOt7-cwn2-24" style="edgeStyle=orthogonalEdgeStyle;rounded=0;orthogonalLoop=1;jettySize=auto;html=1;entryX=0;entryY=0.5;entryDx=0;entryDy=0;" edge="1" parent="_e3NWBXnyXuwOt7-cwn2-14" source="_e3NWBXnyXuwOt7-cwn2-25" target="_e3NWBXnyXuwOt7-cwn2-26">
          <mxGeometry relative="1" as="geometry" />
        </mxCell>
        <mxCell id="_e3NWBXnyXuwOt7-cwn2-25" value="5440:。。。" style="text;strokeColor=none;align=center;fillColor=none;html=1;verticalAlign=middle;whiteSpace=wrap;rounded=0;" vertex="1" parent="_e3NWBXnyXuwOt7-cwn2-14">
          <mxGeometry y="317.5" width="190" height="30" as="geometry" />
        </mxCell>
        <mxCell id="_e3NWBXnyXuwOt7-cwn2-26" value="。。。" style="ellipse;whiteSpace=wrap;html=1;" vertex="1" parent="_e3NWBXnyXuwOt7-cwn2-14">
          <mxGeometry x="261" y="297.5" width="120" height="70" as="geometry" />
        </mxCell>
        <mxCell id="_e3NWBXnyXuwOt7-cwn2-30" style="edgeStyle=orthogonalEdgeStyle;rounded=0;orthogonalLoop=1;jettySize=auto;html=1;" edge="1" parent="1" source="_e3NWBXnyXuwOt7-cwn2-27" target="_e3NWBXnyXuwOt7-cwn2-28">
          <mxGeometry relative="1" as="geometry" />
        </mxCell>
        <mxCell id="_e3NWBXnyXuwOt7-cwn2-27" value="。。。" style="text;strokeColor=none;align=center;fillColor=none;html=1;verticalAlign=middle;whiteSpace=wrap;rounded=0;" vertex="1" parent="1">
          <mxGeometry x="580" y="2150" width="60" height="30" as="geometry" />
        </mxCell>
        <mxCell id="_e3NWBXnyXuwOt7-cwn2-28" value="。。。" style="ellipse;whiteSpace=wrap;html=1;" vertex="1" parent="1">
          <mxGeometry x="781" y="2130" width="120" height="70" as="geometry" />
        </mxCell>
        <mxCell id="_e3NWBXnyXuwOt7-cwn2-45" style="edgeStyle=orthogonalEdgeStyle;rounded=0;orthogonalLoop=1;jettySize=auto;html=1;entryX=0.5;entryY=0;entryDx=0;entryDy=0;" edge="1" parent="1" source="_e3NWBXnyXuwOt7-cwn2-31" target="_e3NWBXnyXuwOt7-cwn2-32">
          <mxGeometry relative="1" as="geometry" />
        </mxCell>
        <mxCell id="_e3NWBXnyXuwOt7-cwn2-31" value="等待1~2s" style="rounded=1;whiteSpace=wrap;html=1;" vertex="1" parent="1">
          <mxGeometry x="1280" y="1350" width="120" height="60" as="geometry" />
        </mxCell>
        <mxCell id="_e3NWBXnyXuwOt7-cwn2-46" style="edgeStyle=orthogonalEdgeStyle;rounded=0;orthogonalLoop=1;jettySize=auto;html=1;entryX=0.5;entryY=0;entryDx=0;entryDy=0;" edge="1" parent="1" source="_e3NWBXnyXuwOt7-cwn2-32" target="_e3NWBXnyXuwOt7-cwn2-33">
          <mxGeometry relative="1" as="geometry" />
        </mxCell>
        <mxCell id="_e3NWBXnyXuwOt7-cwn2-32" value="获取当前所有重保直播间" style="rounded=1;whiteSpace=wrap;html=1;" vertex="1" parent="1">
          <mxGeometry x="1245.5" y="1470" width="189" height="60" as="geometry" />
        </mxCell>
        <mxCell id="_e3NWBXnyXuwOt7-cwn2-47" style="edgeStyle=orthogonalEdgeStyle;rounded=0;orthogonalLoop=1;jettySize=auto;html=1;entryX=0.5;entryY=0;entryDx=0;entryDy=0;" edge="1" parent="1" source="_e3NWBXnyXuwOt7-cwn2-33" target="_e3NWBXnyXuwOt7-cwn2-34">
          <mxGeometry relative="1" as="geometry" />
        </mxCell>
        <mxCell id="_e3NWBXnyXuwOt7-cwn2-33" value="串行遍历每个重保直播间做以下操作" style="rounded=1;whiteSpace=wrap;html=1;" vertex="1" parent="1">
          <mxGeometry x="1230" y="1600" width="220" height="60" as="geometry" />
        </mxCell>
        <mxCell id="_e3NWBXnyXuwOt7-cwn2-48" style="edgeStyle=orthogonalEdgeStyle;rounded=0;orthogonalLoop=1;jettySize=auto;html=1;" edge="1" parent="1" source="_e3NWBXnyXuwOt7-cwn2-34">
          <mxGeometry relative="1" as="geometry">
            <mxPoint x="1340" y="1870" as="targetPoint" />
          </mxGeometry>
        </mxCell>
        <mxCell id="_e3NWBXnyXuwOt7-cwn2-34" value="过滤出需要执行且可缓存的模块" style="rounded=1;whiteSpace=wrap;html=1;" vertex="1" parent="1">
          <mxGeometry x="1230" y="1733" width="220" height="60" as="geometry" />
        </mxCell>
        <mxCell id="_e3NWBXnyXuwOt7-cwn2-41" style="edgeStyle=orthogonalEdgeStyle;rounded=0;orthogonalLoop=1;jettySize=auto;html=1;entryX=0.5;entryY=0;entryDx=0;entryDy=0;" edge="1" parent="1" source="_e3NWBXnyXuwOt7-cwn2-35" target="_e3NWBXnyXuwOt7-cwn2-36">
          <mxGeometry relative="1" as="geometry" />
        </mxCell>
        <mxCell id="_e3NWBXnyXuwOt7-cwn2-43" style="edgeStyle=orthogonalEdgeStyle;rounded=0;orthogonalLoop=1;jettySize=auto;html=1;entryX=0.5;entryY=0;entryDx=0;entryDy=0;" edge="1" parent="1" source="_e3NWBXnyXuwOt7-cwn2-35" target="_e3NWBXnyXuwOt7-cwn2-38">
          <mxGeometry relative="1" as="geometry" />
        </mxCell>
        <mxCell id="_e3NWBXnyXuwOt7-cwn2-50" style="edgeStyle=orthogonalEdgeStyle;rounded=0;orthogonalLoop=1;jettySize=auto;html=1;entryX=0;entryY=0.5;entryDx=0;entryDy=0;" edge="1" parent="1" source="_e3NWBXnyXuwOt7-cwn2-35" target="_e3NWBXnyXuwOt7-cwn2-31">
          <mxGeometry relative="1" as="geometry">
            <Array as="points">
              <mxPoint x="1080" y="1904" />
              <mxPoint x="1080" y="1380" />
            </Array>
          </mxGeometry>
        </mxCell>
        <mxCell id="_e3NWBXnyXuwOt7-cwn2-35" value="并发调用各模块的下游获取模块内容(包括xroom的房间基本详情)" style="rounded=1;whiteSpace=wrap;html=1;" vertex="1" parent="1">
          <mxGeometry x="1160" y="1873.75" width="360" height="60" as="geometry" />
        </mxCell>
        <mxCell id="_e3NWBXnyXuwOt7-cwn2-56" style="edgeStyle=orthogonalEdgeStyle;rounded=0;orthogonalLoop=1;jettySize=auto;html=1;exitX=0;exitY=0.5;exitDx=0;exitDy=0;entryX=1;entryY=0.5;entryDx=0;entryDy=0;" edge="1" parent="1" source="_e3NWBXnyXuwOt7-cwn2-36" target="_e3NWBXnyXuwOt7-cwn2-21">
          <mxGeometry relative="1" as="geometry" />
        </mxCell>
        <mxCell id="_e3NWBXnyXuwOt7-cwn2-57" style="edgeStyle=orthogonalEdgeStyle;rounded=0;orthogonalLoop=1;jettySize=auto;html=1;entryX=1;entryY=0.5;entryDx=0;entryDy=0;" edge="1" parent="1" source="_e3NWBXnyXuwOt7-cwn2-36" target="_e3NWBXnyXuwOt7-cwn2-20">
          <mxGeometry relative="1" as="geometry" />
        </mxCell>
        <mxCell id="_e3NWBXnyXuwOt7-cwn2-58" style="edgeStyle=orthogonalEdgeStyle;rounded=0;orthogonalLoop=1;jettySize=auto;html=1;entryX=1;entryY=0.5;entryDx=0;entryDy=0;" edge="1" parent="1" source="_e3NWBXnyXuwOt7-cwn2-36" target="_e3NWBXnyXuwOt7-cwn2-17">
          <mxGeometry relative="1" as="geometry" />
        </mxCell>
        <mxCell id="_e3NWBXnyXuwOt7-cwn2-59" style="edgeStyle=orthogonalEdgeStyle;rounded=0;orthogonalLoop=1;jettySize=auto;html=1;entryX=1;entryY=0.5;entryDx=0;entryDy=0;" edge="1" parent="1" source="_e3NWBXnyXuwOt7-cwn2-36" target="_e3NWBXnyXuwOt7-cwn2-13">
          <mxGeometry relative="1" as="geometry" />
        </mxCell>
        <mxCell id="_e3NWBXnyXuwOt7-cwn2-61" style="edgeStyle=orthogonalEdgeStyle;rounded=0;orthogonalLoop=1;jettySize=auto;html=1;entryX=1;entryY=0.5;entryDx=0;entryDy=0;" edge="1" parent="1" source="_e3NWBXnyXuwOt7-cwn2-36" target="_e3NWBXnyXuwOt7-cwn2-8">
          <mxGeometry relative="1" as="geometry" />
        </mxCell>
        <mxCell id="_e3NWBXnyXuwOt7-cwn2-62" style="edgeStyle=orthogonalEdgeStyle;rounded=0;orthogonalLoop=1;jettySize=auto;html=1;entryX=1;entryY=0.5;entryDx=0;entryDy=0;" edge="1" parent="1" source="_e3NWBXnyXuwOt7-cwn2-36" target="_e3NWBXnyXuwOt7-cwn2-7">
          <mxGeometry relative="1" as="geometry" />
        </mxCell>
        <mxCell id="_e3NWBXnyXuwOt7-cwn2-63" style="edgeStyle=orthogonalEdgeStyle;rounded=0;orthogonalLoop=1;jettySize=auto;html=1;entryX=1;entryY=0.5;entryDx=0;entryDy=0;" edge="1" parent="1" source="_e3NWBXnyXuwOt7-cwn2-36" target="_e3NWBXnyXuwOt7-cwn2-4">
          <mxGeometry relative="1" as="geometry" />
        </mxCell>
        <mxCell id="_e3NWBXnyXuwOt7-cwn2-64" style="edgeStyle=orthogonalEdgeStyle;rounded=0;orthogonalLoop=1;jettySize=auto;html=1;entryX=1;entryY=0.5;entryDx=0;entryDy=0;" edge="1" parent="1" source="_e3NWBXnyXuwOt7-cwn2-36" target="_e3NWBXnyXuwOt7-cwn2-26">
          <mxGeometry relative="1" as="geometry" />
        </mxCell>
        <mxCell id="_e3NWBXnyXuwOt7-cwn2-65" style="edgeStyle=orthogonalEdgeStyle;rounded=0;orthogonalLoop=1;jettySize=auto;html=1;" edge="1" parent="1" source="_e3NWBXnyXuwOt7-cwn2-36" target="_e3NWBXnyXuwOt7-cwn2-28">
          <mxGeometry relative="1" as="geometry" />
        </mxCell>
        <mxCell id="_e3NWBXnyXuwOt7-cwn2-66" value="写入本地缓存并续期" style="edgeLabel;html=1;align=center;verticalAlign=middle;resizable=0;points=[];" vertex="1" connectable="0" parent="_e3NWBXnyXuwOt7-cwn2-65">
          <mxGeometry x="-0.4556" y="2" relative="1" as="geometry">
            <mxPoint x="-34" y="-2" as="offset" />
          </mxGeometry>
        </mxCell>
        <mxCell id="_e3NWBXnyXuwOt7-cwn2-36" value="app-room" style="rounded=0;whiteSpace=wrap;html=1;" vertex="1" parent="1">
          <mxGeometry x="1070" y="2135" width="120" height="60" as="geometry" />
        </mxCell>
        <mxCell id="_e3NWBXnyXuwOt7-cwn2-67" style="edgeStyle=orthogonalEdgeStyle;rounded=0;orthogonalLoop=1;jettySize=auto;html=1;entryX=1;entryY=0.5;entryDx=0;entryDy=0;" edge="1" parent="1" source="_e3NWBXnyXuwOt7-cwn2-37" target="_e3NWBXnyXuwOt7-cwn2-36">
          <mxGeometry relative="1" as="geometry" />
        </mxCell>
        <mxCell id="_e3NWBXnyXuwOt7-cwn2-37" value="app-room" style="rounded=0;whiteSpace=wrap;html=1;" vertex="1" parent="1">
          <mxGeometry x="1270" y="2135" width="120" height="60" as="geometry" />
        </mxCell>
        <mxCell id="_e3NWBXnyXuwOt7-cwn2-68" style="edgeStyle=orthogonalEdgeStyle;rounded=0;orthogonalLoop=1;jettySize=auto;html=1;" edge="1" parent="1" source="_e3NWBXnyXuwOt7-cwn2-38" target="_e3NWBXnyXuwOt7-cwn2-37">
          <mxGeometry relative="1" as="geometry" />
        </mxCell>
        <mxCell id="_e3NWBXnyXuwOt7-cwn2-38" value="app-room" style="rounded=0;whiteSpace=wrap;html=1;" vertex="1" parent="1">
          <mxGeometry x="1460" y="2135" width="120" height="60" as="geometry" />
        </mxCell>
        <mxCell id="_e3NWBXnyXuwOt7-cwn2-39" value="。。。" style="text;strokeColor=none;align=center;fillColor=none;html=1;verticalAlign=middle;whiteSpace=wrap;rounded=0;" vertex="1" parent="1">
          <mxGeometry x="1400" y="2150" width="60" height="30" as="geometry" />
        </mxCell>
        <mxCell id="_e3NWBXnyXuwOt7-cwn2-42" style="edgeStyle=orthogonalEdgeStyle;rounded=0;orthogonalLoop=1;jettySize=auto;html=1;entryX=0.583;entryY=0;entryDx=0;entryDy=0;entryPerimeter=0;" edge="1" parent="1" source="_e3NWBXnyXuwOt7-cwn2-35" target="_e3NWBXnyXuwOt7-cwn2-37">
          <mxGeometry relative="1" as="geometry" />
        </mxCell>
        <mxCell id="_e3NWBXnyXuwOt7-cwn2-44" value="推送给包括自己的其他服务实例" style="edgeLabel;html=1;align=center;verticalAlign=middle;resizable=0;points=[];" vertex="1" connectable="0" parent="_e3NWBXnyXuwOt7-cwn2-42">
          <mxGeometry x="-0.6099" y="1" relative="1" as="geometry">
            <mxPoint x="-1" y="15" as="offset" />
          </mxGeometry>
        </mxCell>
        <mxCell id="_e3NWBXnyXuwOt7-cwn2-51" value="app-room单例协程" style="text;strokeColor=none;align=center;fillColor=none;html=1;verticalAlign=middle;whiteSpace=wrap;rounded=0;" vertex="1" parent="1">
          <mxGeometry x="1260" y="1300" width="160" height="30" as="geometry" />
        </mxCell>
      </root>
    </mxGraphModel>
  </diagram>
</mxfile>
